<?xml version="1.0" encoding="UTF-8"?>
<svg id="Calque_1" data-name="Calque 1" xmlns="http://www.w3.org/2000/svg" xmlns:xlink="http://www.w3.org/1999/xlink" viewBox="0 0 49.37 21.96">
  <defs>
    <style>
      .cls-1 {
        fill: #1d1d1b;
      }

      .cls-2 {
        fill: url(#Dégradé_sans_nom_2);
      }
    </style>
    <linearGradient id="Dégradé_sans_nom_2" data-name="Dégradé sans nom 2" x1="19.46" y1="3.36" x2="39.3" y2="3.36" gradientUnits="userSpaceOnUse">
      <stop offset="0" stop-color="#28348a"/>
      <stop offset="1" stop-color="#e61b72"/>
    </linearGradient>
  </defs>
  <g>
    <path class="cls-1" d="M10.49,21.72c-1.85,0-3.49-.4-4.92-1.21-1.43-.81-2.55-1.91-3.36-3.33-.81-1.41-1.22-3.04-1.22-4.87s.41-3.46,1.22-4.87c.81-1.41,1.94-2.52,3.36-3.33s3.07-1.21,4.92-1.21c1.11,0,2.13,.16,3.07,.49,.94,.33,1.76,.78,2.48,1.36,.72,.58,1.32,1.24,1.81,1.99l-2.91,1.82c-.29-.47-.68-.88-1.16-1.25-.48-.36-1-.65-1.57-.86s-1.14-.31-1.71-.31c-1.14,0-2.16,.26-3.04,.79-.88,.53-1.58,1.25-2.08,2.17-.5,.92-.75,1.98-.75,3.2s.25,2.26,.74,3.2,1.19,1.67,2.09,2.2c.9,.53,1.94,.79,3.12,.79,.92,0,1.74-.18,2.46-.55,.72-.36,1.29-.87,1.7-1.53,.42-.66,.62-1.42,.62-2.29l3.38-.52c0,1.71-.35,3.18-1.05,4.39-.7,1.21-1.67,2.13-2.91,2.77-1.24,.63-2.66,.95-4.27,.95Zm.6-7.27v-2.78h7.64v2.21l-1.92,.57h-5.72Z"/>
    <path class="cls-1" d="M21.06,21.4V8.41h3.43v12.99h-3.43Z"/>
    <path class="cls-1" d="M27.66,21.4V8.41h3.43v12.99h-3.43Zm2.42-6.83c0-1.4,.27-2.56,.82-3.48,.55-.92,1.25-1.6,2.1-2.05,.86-.45,1.75-.68,2.69-.68v3.33c-.8,0-1.55,.1-2.25,.29-.7,.19-1.27,.5-1.7,.94-.43,.43-.65,.99-.65,1.66h-1.01Z"/>
    <path class="cls-1" d="M41.72,21.72c-1.56,0-2.77-.35-3.62-1.04-.86-.69-1.29-1.67-1.29-2.94,0-1.39,.46-2.43,1.39-3.13,.93-.7,2.23-1.05,3.91-1.05h3.3v2.55h-2.1c-1.13,0-1.91,.13-2.34,.4-.43,.27-.65,.65-.65,1.13,0,.38,.17,.68,.52,.9,.35,.22,.83,.32,1.45,.32,.57,0,1.08-.13,1.52-.4,.44-.27,.79-.61,1.05-1.04,.26-.42,.39-.86,.39-1.31h.83c0,1.77-.33,3.14-1,4.13-.67,.99-1.79,1.48-3.36,1.48Zm3.64-.31l-.1-2.62v-3.95c0-.78-.08-1.45-.25-2-.16-.55-.42-.98-.78-1.29-.36-.3-.84-.45-1.44-.45-.55,0-1.06,.12-1.51,.36-.45,.24-.83,.62-1.14,1.12l-3.01-1.04c.24-.55,.6-1.1,1.07-1.62,.47-.53,1.08-.96,1.83-1.3,.75-.34,1.68-.51,2.77-.51,1.32,0,2.41,.25,3.29,.75,.87,.5,1.52,1.21,1.95,2.12,.42,.91,.63,1.99,.61,3.23l-.08,7.2h-3.2Z"/>
  </g>
  <path class="cls-2" d="M37.36,.41h-2.76c-.2,0-.38,.11-.48,.28l-.95,1.64c-.22,.37-.75,.37-.97,0l-.95-1.64c-.1-.17-.28-.28-.48-.28h-2.76c-.2,0-.38,.11-.48,.28l-.95,1.64c-.22,.37-.75,.37-.97,0l-.95-1.64c-.1-.17-.28-.28-.48-.28h-2.76c-.2,0-.38,.11-.48,.28l-1.38,2.39c-.1,.17-.1,.39,0,.56l1.38,2.39c.1,.17,.28,.28,.48,.28h2.76c.2,0,.38-.11,.48-.28l.95-1.64c.22-.37,.75-.37,.97,0l.95,1.64c.1,.17,.28,.28,.48,.28h2.76c.2,0,.38-.11,.48-.28l.95-1.64c.22-.37,.75-.37,.97,0l.95,1.64c.1,.17,.28,.28,.48,.28h2.76c.2,0,.38-.11,.48-.28l1.38-2.39c.1-.17,.1-.39,0-.56l-1.38-2.39c-.1-.17-.28-.28-.48-.28Z"/>
</svg>