<?xml version="1.0" encoding="UTF-8"?>
<svg id="Calque_1" data-name="Calque 1" xmlns="http://www.w3.org/2000/svg" viewBox="0 0 33.86 17.28">
  <defs>
    <style>
      .cls-1 {
        fill: #fff;
      }

      .cls-2 {
        fill: #1d1d1b;
      }
    </style>
  </defs>
  <rect class="cls-1" x="-.23" width="34.09" height="17.28" rx="1.52" ry="1.52"/>
  <g>
    <g>
      <path class="cls-2" d="M7.34,15.16c-1.17,0-2.2-.25-3.1-.76-.9-.51-1.61-1.2-2.12-2.09-.51-.89-.77-1.91-.77-3.07s.26-2.18,.77-3.07c.51-.89,1.22-1.59,2.12-2.09s1.93-.76,3.1-.76c.7,0,1.34,.1,1.93,.31,.59,.21,1.11,.49,1.56,.86,.45,.37,.83,.78,1.14,1.25l-1.83,1.14c-.19-.29-.43-.56-.73-.78-.3-.23-.63-.41-.99-.54s-.72-.2-1.08-.2c-.72,0-1.36,.17-1.91,.5-.56,.33-.99,.79-1.31,1.37-.32,.58-.47,1.25-.47,2.01s.16,1.42,.47,2.01,.75,1.05,1.32,1.38c.57,.33,1.22,.5,1.96,.5,.58,0,1.09-.11,1.55-.34,.45-.23,.81-.55,1.07-.97,.26-.41,.39-.89,.39-1.44l2.13-.33c0,1.08-.22,2-.66,2.76-.44,.76-1.05,1.34-1.83,1.74-.78,.4-1.68,.6-2.69,.6Zm.38-4.58v-1.75h4.81v1.39l-1.21,.36h-3.6Z"/>
      <path class="cls-2" d="M14,14.96V6.79h2.16V14.96h-2.16Z"/>
      <path class="cls-2" d="M18.15,14.96V6.79h2.16V14.96h-2.16Zm1.52-4.3c0-.88,.17-1.61,.52-2.19,.34-.58,.79-1.01,1.32-1.29,.54-.28,1.1-.43,1.69-.43v2.09c-.5,0-.97,.06-1.41,.18-.44,.12-.8,.32-1.07,.59-.27,.27-.41,.62-.41,1.05h-.64Z"/>
      <path class="cls-2" d="M27,15.16c-.98,0-1.74-.22-2.28-.65-.54-.44-.81-1.05-.81-1.85,0-.87,.29-1.53,.87-1.97,.58-.44,1.4-.66,2.46-.66h2.08v1.6h-1.32c-.71,0-1.2,.08-1.47,.25-.27,.17-.41,.41-.41,.71,0,.24,.11,.43,.33,.56,.22,.14,.52,.2,.92,.2,.36,0,.68-.08,.96-.25,.28-.17,.5-.39,.66-.65,.16-.27,.25-.54,.25-.83h.52c0,1.11-.21,1.98-.63,2.6-.42,.62-1.13,.93-2.12,.93Zm2.29-.2l-.07-1.65v-2.49c0-.49-.05-.91-.16-1.26-.1-.35-.27-.62-.49-.81-.22-.19-.53-.29-.91-.29-.35,0-.67,.08-.95,.23-.28,.15-.52,.39-.72,.7l-1.9-.65c.15-.35,.38-.69,.67-1.02,.29-.33,.68-.61,1.15-.82,.47-.21,1.05-.32,1.74-.32,.83,0,1.52,.16,2.07,.47,.55,.32,.96,.76,1.23,1.33,.27,.57,.39,1.25,.38,2.04l-.05,4.53h-2.01Z"/>
    </g>
    <path class="cls-2" d="M24.26,1.75h-1.74c-.13,0-.24,.07-.3,.18l-.6,1.04c-.14,.23-.47,.23-.61,0l-.6-1.04c-.06-.11-.18-.18-.3-.18h-1.74c-.13,0-.24,.07-.3,.18l-.6,1.04c-.14,.23-.47,.23-.61,0l-.6-1.04c-.06-.11-.18-.18-.3-.18h-1.74c-.13,0-.24,.07-.3,.18l-.87,1.51c-.06,.11-.06,.24,0,.35l.87,1.51c.06,.11,.18,.18,.3,.18h1.74c.13,0,.24-.07,.3-.18l.6-1.04c.14-.23,.47-.23,.61,0l.6,1.04c.06,.11,.18,.18,.3,.18h1.74c.13,0,.24-.07,.3-.18l.6-1.04c.14-.23,.47-.23,.61,0l.6,1.04c.06,.11,.18,.18,.3,.18h1.74c.13,0,.24-.07,.3-.18l.87-1.51c.06-.11,.06-.24,0-.35l-.87-1.51c-.06-.11-.18-.18-.3-.18Z"/>
  </g>
</svg>