<?xml version="1.0" encoding="UTF-8"?>
<svg id="Calque_1" data-name="Calque 1" xmlns="http://www.w3.org/2000/svg" xmlns:xlink="http://www.w3.org/1999/xlink" viewBox="0 0 73.82 21.96">
  <defs>
    <style>
      .cls-1 {
        fill: url(#Dégradé_sans_nom_2);
      }
    </style>
    <linearGradient id="Dégradé_sans_nom_2" data-name="Dégradé sans nom 2" x1="0" y1="10.98" x2="73.82" y2="10.98" gradientUnits="userSpaceOnUse">
      <stop offset="0" stop-color="#28348a"/>
      <stop offset="1" stop-color="#e61b72"/>
    </linearGradient>
  </defs>
  <path class="cls-1" d="M66.6,0h-10.28c-.74,0-1.43,.4-1.8,1.04l-3.53,6.12c-.8,1.39-2.8,1.39-3.6,0l-3.53-6.12c-.37-.64-1.06-1.04-1.8-1.04h-10.28c-.74,0-1.43,.4-1.8,1.04l-3.53,6.12c-.8,1.39-2.8,1.39-3.6,0l-3.53-6.12c-.37-.64-1.06-1.04-1.8-1.04H7.22c-.74,0-1.43,.4-1.8,1.04L.28,9.94c-.37,.64-.37,1.44,0,2.08l5.14,8.9c.37,.64,1.06,1.04,1.8,1.04h10.28c.74,0,1.43-.4,1.8-1.04l3.53-6.12c.8-1.39,2.8-1.39,3.6,0l3.53,6.12c.37,.64,1.06,1.04,1.8,1.04h10.28c.74,0,1.43-.4,1.8-1.04l3.53-6.12c.8-1.39,2.8-1.39,3.6,0l3.53,6.12c.37,.64,1.06,1.04,1.8,1.04h10.28c.74,0,1.43-.4,1.8-1.04l5.14-8.9c.37-.64,.37-1.44,0-2.08l-5.14-8.9c-.37-.64-1.06-1.04-1.8-1.04Z"/>
</svg>